<mxfile host="app.diagrams.net" modified="2024-04-09T08:18:24.854Z" agent="Mozilla/5.0 (Macintosh; Intel Mac OS X 10_15_7) AppleWebKit/537.36 (KHTML, like Gecko) Chrome/122.0.0.0 Safari/537.36 OPR/108.0.0.0" version="24.2.2" etag="OyZwnT989KCredeCR5XH" type="github">
  <diagram name="Page-1" id="lqDHweUGmvveG3UaqyZv">
    <mxGraphModel>
      <root>
        <mxCell id="0" />
        <mxCell id="1" parent="0" />
      </root>
    </mxGraphModel>
  </diagram>
</mxfile>
